subject_03
version=1
nRows=211
nColumns=3
inDegrees=yes
endheader
time	r_shoulder_elev	r_elbow_flex
46.0100	26.780303	91.667955
46.0200	26.780303	92.317470
46.0300	26.780303	93.770320
46.0400	26.780303	95.690165
46.0500	26.780303	97.525807
46.0600	26.780303	98.764565
46.0700	26.780303	99.163098
46.0800	26.780303	98.847028
46.0900	26.780303	98.237314
46.1000	26.780303	97.846065
46.1100	26.780303	98.044393
46.1200	26.780303	98.911755
46.1300	26.780303	100.229622
46.1400	26.780303	101.608960
46.1500	26.780303	102.679023
46.1600	26.780303	103.243848
46.1700	26.780303	103.339129
46.1800	26.780303	103.177834
46.1900	26.780303	103.027061
46.2000	26.780303	103.084494
46.2100	26.780303	103.411274
46.2200	26.780303	103.940478
46.2300	26.780303	104.539919
46.2400	26.780303	105.086145
46.2500	26.780303	105.511371
46.2600	26.780303	105.809055
46.2700	26.780303	106.009778
46.2800	26.780303	106.151818
46.2900	26.780303	106.265491
46.3000	26.780303	106.374064
46.3100	26.780303	106.499988
46.3200	26.780303	106.663070
46.3300	26.780303	106.867410
46.3400	26.780303	107.087573
46.3500	26.780303	107.270097
46.3600	26.780303	107.358387
46.3700	26.780303	107.331591
46.3800	26.780303	107.233274
46.3900	26.780303	107.165451
46.4000	26.780303	107.241035
46.4100	26.780303	107.514388
46.4200	26.780303	107.929103
46.4300	26.780303	108.320259
46.4400	26.780303	108.482576
46.4500	26.780303	108.278183
46.4600	26.780303	107.729285
46.4700	26.780303	107.040183
46.4800	26.780303	106.524239
46.4900	26.780303	106.460668
46.5000	26.780303	106.947774
46.5100	26.780303	107.829415
46.5200	26.780303	108.741058
46.5300	26.780303	109.263968
46.5400	26.780303	109.121084
46.5500	26.780303	108.319252
46.5600	26.780303	107.164772
46.5700	26.780303	106.138046
46.5800	26.780303	105.681400
46.5900	26.780303	105.998101
46.6000	26.780303	106.957336
46.6100	26.780303	108.150438
46.6200	26.780303	109.072128
46.6300	26.780303	109.342143
46.6400	26.780303	108.865552
46.6500	26.780303	107.861623
46.6600	26.780303	106.754442
46.6700	26.780303	105.981887
46.6800	26.780303	105.812903
46.6900	26.780303	106.252305
46.7000	26.780303	107.066069
46.7100	26.780303	107.903031
46.7200	26.780303	108.448531
46.7300	26.780303	108.539698
46.7400	26.780303	108.203080
46.7500	26.780303	107.609702
46.7600	26.780303	106.982805
46.7700	26.780303	106.506718
46.7800	26.780303	106.273335
46.7900	26.780303	106.276994
46.8000	26.780303	106.444325
46.8100	26.780303	106.674623
46.8200	26.780303	106.870879
46.8300	26.780303	106.955006
46.8400	26.780303	106.872848
46.8500	26.780303	106.598052
46.8600	26.780303	106.138714
46.8700	26.780303	105.542487
46.8800	26.780303	104.891789
46.8900	26.780303	104.284124
46.9000	26.780303	103.801374
46.9100	26.780303	103.479968
46.9200	26.780303	103.295537
46.9300	26.780303	103.169612
46.9400	26.780303	102.995639
46.9500	26.780303	102.673219
46.9600	26.780303	102.137502
46.9700	26.780303	101.375215
46.9800	26.780303	100.425992
46.9900	26.780303	99.372482
47.0000	26.780303	98.322920
47.0100	26.780303	97.387279
47.0200	26.780303	96.647211
47.0300	26.780303	96.123783
47.0400	26.780303	95.754137
47.0500	26.780303	95.392909
47.0600	26.780303	94.849914
47.0700	26.780303	93.960484
47.0800	26.780303	92.664485
47.0900	26.780303	91.056277
47.1000	26.780303	89.371875
47.1100	26.780303	87.904369
47.1200	26.780303	86.875181
47.1300	26.780303	86.318361
47.1400	26.780303	86.039401
47.1500	26.780303	85.681546
47.1600	26.780303	84.881346
47.1700	26.780303	83.445848
47.1800	26.780303	81.463686
47.1900	26.780303	79.286225
47.2000	26.780303	77.375424
47.2100	26.780303	76.083811
47.2200	26.780303	75.473036
47.2300	26.780303	75.266378
47.2400	26.780303	74.968697
47.2500	26.780303	74.103272
47.2600	26.780303	72.451591
47.2700	26.780303	70.174087
47.2800	26.780303	67.744741
47.2900	26.780303	65.725039
47.3000	26.780303	64.486320
47.3100	26.780303	64.020107
47.3200	26.780303	63.935304
47.3300	26.780303	63.648090
47.3400	26.780303	62.671701
47.3500	26.780303	60.860390
47.3600	26.780303	58.483254
47.3700	26.780303	56.089541
47.3800	26.780303	54.233637
47.3900	26.780303	53.199971
47.4000	26.780303	52.867683
47.4100	26.780303	52.782132
47.4200	26.780303	52.393217
47.4300	26.780303	51.335053
47.4400	26.780303	49.602517
47.4500	26.780303	47.536830
47.4600	26.780303	45.633912
47.4700	26.780303	44.281563
47.4800	26.780303	43.565750
47.4900	26.780303	43.245400
47.5000	26.780303	42.902241
47.5100	26.780303	42.178308
47.5200	26.780303	40.969227
47.5300	26.780303	39.469355
47.5400	26.780303	38.048744
47.5500	26.780303	37.034940
47.5600	26.780303	36.523748
47.5700	26.780303	36.324965
47.5800	26.780303	36.072471
47.5900	26.780303	35.435984
47.6000	26.780303	34.315132
47.6100	26.780303	32.906338
47.6200	26.780303	31.603537
47.6300	26.780303	30.785748
47.6400	26.780303	30.607319
47.6500	26.780303	30.905838
47.6600	26.780303	31.279044
47.6700	26.780303	31.290594
47.6800	26.780303	30.695320
47.6900	26.780303	29.564854
47.7000	26.780303	28.248800
47.7100	26.780303	27.194666
47.7200	26.780303	26.723516
47.7300	26.780303	26.878526
47.7400	26.780303	27.420946
47.7500	26.780303	27.967388
47.7600	26.780303	28.188583
47.7700	26.780303	27.962301
47.7800	26.780303	27.404816
47.7900	26.780303	26.775943
47.8000	26.780303	26.321637
47.8100	26.780303	26.147141
47.8200	26.780303	26.188643
47.8300	26.780303	26.289082
47.8400	26.780303	26.321700
47.8500	26.780303	26.279308
47.8600	26.780303	26.272032
47.8700	26.780303	26.435778
47.8800	26.780303	26.811718
47.8900	26.780303	27.278483
47.9000	26.780303	27.590830
47.9100	26.780303	27.512029
47.9200	26.780303	26.967197
47.9300	26.780303	26.127489
47.9400	26.780303	25.363053
47.9500	26.780303	25.074697
47.9600	26.780303	25.484926
47.9700	26.780303	26.499168
47.9800	26.780303	27.718619
47.9900	26.780303	28.610323
48.0000	26.780303	28.757288
48.0100	26.780303	28.065708
48.0200	26.780303	26.823408
48.0300	26.780303	25.575854
48.0400	26.780303	24.876900
48.0500	26.780303	25.034154
48.0600	26.780303	25.971360
48.0700	26.780303	27.271706
48.0800	26.780303	28.376936
48.0900	26.780303	28.842942
48.1000	26.780303	28.529860
48.1100	26.780303	27.642436
